<svg xmlns="http://www.w3.org/2000/svg" width="1211.391" height="1004.063" viewBox="0 0 1211.391 1004.063">
  <g id="Group_1794" data-name="Group 1794" transform="translate(14.285 12.222)">
    <rect id="Rectangle_1847" data-name="Rectangle 1847" width="1211.391" height="1004.063" transform="translate(-14.285 -12.222)" fill="#ffd000"/>
    <path id="Path_5029" data-name="Path 5029" d="M273.451,1004.063,605.692,501.854,206.455,1004.063ZM0,571.856l605.692-70L0,538.352Zm402.242,432.207,203.45-502.209L343.937,1004.063Zm-279.03,0,482.48-502.209L41.019,1004.063ZM0,730.107,605.692,501.854,0,689.638ZM0,955.136,605.692,501.854,0,891.573ZM0,646.714l605.692-144.86L0,610.92Zm631.929,357.349L605.692,501.854l-26.233,502.209ZM0,828.885,605.692,501.854,0,780.066Zm519.273,175.178,86.419-502.209L465.383,1004.063Zm692.118-314.425-605.7-187.784,605.7,228.257Zm0-78.711-605.7-109.073,605.7,144.874Zm0,169.143-605.7-278.216,605.7,327.035Zm0-241.714-605.7-36.5,605.7,70.009Zm0,353.221-605.7-389.723,530.08,396.692,75.618,56.59Zm-206.458,112.486L605.692,501.854l332.244,502.209Zm-137.537,0-261.7-502.209,203.4,502.209Zm302.972,0L605.692,501.854l482.483,502.209Zm-424.414,0L605.692,501.854l86.372,502.209ZM1211.391,0h-35.524L605.692,501.854l605.7-457.863ZM871.34,0,605.692,501.854,933.319,0Zm137.977,0L605.692,501.854,1082.741,0ZM749.376,0,605.692,501.854,805,0Zm462.014,116.21-605.7,385.644,605.7-330.539Zm0,278.934-605.7,106.71,605.7-72.307Zm0,72.62-605.7,34.089,605.7-1.018ZM635.532,0,605.692,501.854,688.339,0Zm575.858,316.817-605.7,185.037,605.7-147.263Zm0-90.01-605.7,275.047,605.7-231ZM0,171.318,605.692,501.854,0,116.21ZM0,270.85l605.692,231L0,226.807ZM523.048,0l82.644,501.854L575.855,0ZM0,429.554l605.692,72.3L0,395.155Zm0,71.281,605.692,1.018L0,467.764ZM0,354.591,605.692,501.854,0,316.817ZM278.071,0,605.692,501.854,340.047,0ZM406.388,0l199.3,501.854L462.014,0ZM0,0V43.994l605.692,457.86L35.521,0ZM128.586,0,605.692,501.854,202.009,0Z" transform="translate(-14.285 -12.222)" fill="#ebbe08" opacity="0.436"/>
  </g>
</svg>
